<svg xmlns="http://www.w3.org/2000/svg" viewBox="0 0 1200 780" role="img" aria-labelledby="title desc">
  <title id="title">SachAI featured work</title>
  <desc id="desc">SachAI live product, repositories, engineering highlights, and core technologies.</desc>
  <rect width="1200" height="780" rx="24" fill="#0d1117"/>
  <rect width="1200" height="112" rx="24" fill="#0f2746"/>
  <text x="44" y="42" font-family="Segoe UI, Arial, sans-serif" font-size="15" fill="#58a6ff" font-weight="700">FEATURED WORK</text>
  <text x="44" y="78" font-family="Segoe UI, Arial, sans-serif" font-size="32" fill="#f0f6fc" font-weight="700">SachAI — AI Video Authenticity Platform</text>

  <rect x="44" y="145" width="1112" height="150" rx="20" fill="#111820" stroke="#3d444d"/>
  <text x="78" y="194" font-family="Segoe UI, Arial, sans-serif" font-size="28" fill="#f0f6fc" font-weight="700">sachaitech.com</text>
  <text x="78" y="230" font-family="Segoe UI, Arial, sans-serif" font-size="16" fill="#8b949e">Upload video  →  Track processing  →  Review evidence  →  Download report</text>
  <rect x="967" y="171" width="154" height="44" rx="12" fill="#1f7a46"/>
  <text x="1044" y="198" text-anchor="middle" font-family="Segoe UI, Arial, sans-serif" font-size="13" fill="#ffffff" font-weight="700">LIVE PLATFORM</text>
  <rect x="78" y="248" width="74" height="30" rx="9" fill="#161b22" stroke="#30363d"/><circle cx="94" cy="263" r="4" fill="#58a6ff"/><text x="105" y="268" font-family="Segoe UI, Arial, sans-serif" font-size="12" fill="#c9d1d9">.NET 10</text>
  <rect x="160" y="248" width="82" height="30" rx="9" fill="#161b22" stroke="#30363d"/><circle cx="176" cy="263" r="4" fill="#39c5cf"/><text x="187" y="268" font-family="Segoe UI, Arial, sans-serif" font-size="12" fill="#c9d1d9">React 19</text>
  <rect x="250" y="248" width="76" height="30" rx="9" fill="#161b22" stroke="#30363d"/><circle cx="266" cy="263" r="4" fill="#3fb950"/><text x="277" y="268" font-family="Segoe UI, Arial, sans-serif" font-size="12" fill="#c9d1d9">FastAPI</text>
  <rect x="334" y="248" width="96" height="30" rx="9" fill="#161b22" stroke="#30363d"/><circle cx="350" cy="263" r="4" fill="#a371f7"/><text x="361" y="268" font-family="Segoe UI, Arial, sans-serif" font-size="12" fill="#c9d1d9">PostgreSQL</text>
  <rect x="438" y="248" width="86" height="30" rx="9" fill="#161b22" stroke="#30363d"/><circle cx="454" cy="263" r="4" fill="#f0883e"/><text x="465" y="268" font-family="Segoe UI, Arial, sans-serif" font-size="12" fill="#c9d1d9">Hangfire</text>
  <rect x="532" y="248" width="76" height="30" rx="9" fill="#161b22" stroke="#30363d"/><circle cx="548" cy="263" r="4" fill="#d29922"/><text x="559" y="268" font-family="Segoe UI, Arial, sans-serif" font-size="12" fill="#c9d1d9">FFmpeg</text>

  <rect x="44" y="330" width="348" height="215" rx="20" fill="#161b22" stroke="#3d444d"/>
  <rect x="70" y="352" width="54" height="8" rx="4" fill="#58a6ff"/>
  <text x="70" y="398" font-family="Segoe UI, Arial, sans-serif" font-size="22" fill="#f0f6fc" font-weight="700">Backend API</text>
  <text x="70" y="429" font-family="Segoe UI, Arial, sans-serif" font-size="14" fill="#58a6ff">ai-video-detection-backend</text>
  <text x="70" y="467" font-family="Segoe UI, Arial, sans-serif" font-size="14" fill="#8b949e">Clean Architecture API, auth, payments,</text>
  <text x="70" y="489" font-family="Segoe UI, Arial, sans-serif" font-size="14" fill="#8b949e">jobs, observability, evidence and reporting.</text>
  <text x="70" y="522" font-family="Segoe UI, Arial, sans-serif" font-size="13" fill="#c9d1d9">ASP.NET Core · EF Core · Hangfire</text>

  <rect x="426" y="330" width="348" height="215" rx="20" fill="#161b22" stroke="#3d444d"/>
  <rect x="452" y="352" width="54" height="8" rx="4" fill="#39c5cf"/>
  <text x="452" y="398" font-family="Segoe UI, Arial, sans-serif" font-size="22" fill="#f0f6fc" font-weight="700">Web Client</text>
  <text x="452" y="429" font-family="Segoe UI, Arial, sans-serif" font-size="14" fill="#39c5cf">ai-video-detection-frontend</text>
  <text x="452" y="467" font-family="Segoe UI, Arial, sans-serif" font-size="14" fill="#8b949e">Responsive upload, processing, results,</text>
  <text x="452" y="489" font-family="Segoe UI, Arial, sans-serif" font-size="14" fill="#8b949e">subscriptions and admin workflows.</text>
  <text x="452" y="522" font-family="Segoe UI, Arial, sans-serif" font-size="13" fill="#c9d1d9">React 19 · TypeScript · Vite</text>

  <rect x="808" y="330" width="348" height="215" rx="20" fill="#161b22" stroke="#3d444d"/>
  <rect x="834" y="352" width="54" height="8" rx="4" fill="#3fb950"/>
  <text x="834" y="398" font-family="Segoe UI, Arial, sans-serif" font-size="22" fill="#f0f6fc" font-weight="700">AI Service</text>
  <text x="834" y="429" font-family="Segoe UI, Arial, sans-serif" font-size="14" fill="#3fb950">ai-video-detection-ai-service</text>
  <text x="834" y="467" font-family="Segoe UI, Arial, sans-serif" font-size="14" fill="#8b949e">Video/frame inference service with weighted</text>
  <text x="834" y="489" font-family="Segoe UI, Arial, sans-serif" font-size="14" fill="#8b949e">model ensemble and test modes.</text>
  <text x="834" y="522" font-family="Segoe UI, Arial, sans-serif" font-size="13" fill="#c9d1d9">Python · FastAPI · PyTorch</text>

  <text x="44" y="592" font-family="Segoe UI, Arial, sans-serif" font-size="26" fill="#f0f6fc" font-weight="700">Engineering Highlights</text>

  <rect x="44" y="620" width="536" height="70" rx="16" fill="#111820" stroke="#30363d"/>
  <circle cx="78" cy="655" r="7" fill="#f0883e"/>
  <text x="102" y="648" font-family="Segoe UI, Arial, sans-serif" font-size="16" fill="#f0f6fc" font-weight="700">Background processing</text>
  <text x="102" y="670" font-family="Segoe UI, Arial, sans-serif" font-size="13" fill="#8b949e">Pause/resume, retries, timeouts, circuit breaker, stuck-job recovery.</text>

  <rect x="620" y="620" width="536" height="70" rx="16" fill="#111820" stroke="#30363d"/>
  <circle cx="654" cy="655" r="7" fill="#ff7b72"/>
  <text x="678" y="648" font-family="Segoe UI, Arial, sans-serif" font-size="16" fill="#f0f6fc" font-weight="700">Security</text>
  <text x="678" y="670" font-family="Segoe UI, Arial, sans-serif" font-size="13" fill="#8b949e">JWT + refresh, OAuth, lockout, authorization, rate limiting, audit logs.</text>

  <rect x="44" y="704" width="536" height="56" rx="16" fill="#111820" stroke="#30363d"/>
  <circle cx="78" cy="732" r="7" fill="#a371f7"/>
  <text x="102" y="738" font-family="Segoe UI, Arial, sans-serif" font-size="15" fill="#f0f6fc" font-weight="700">Data &amp; performance · migrations, indexes, frame hashing, S3 storage, retention cleanup</text>

  <rect x="620" y="704" width="536" height="56" rx="16" fill="#111820" stroke="#30363d"/>
  <circle cx="654" cy="732" r="7" fill="#3fb950"/>
  <text x="678" y="738" font-family="Segoe UI, Arial, sans-serif" font-size="15" fill="#f0f6fc" font-weight="700">Quality &amp; operations · xUnit, pytest, Vitest, Playwright, health checks, logging</text>
</svg>